<svg width="40" height="30" viewBox="0 0 40 30" fill="none" xmlns="http://www.w3.org/2000/svg">
<g filter="url(#filter0_d_106_4234)">
<path d="M26.5108 18.7227V16.3122H25.8199C24.6098 14.308 21.9367 12.915 18.8345 12.915C15.7323 12.915 13.0585 14.308 11.8485 16.3122H11.1575V18.7227C11.1575 21.9311 14.5945 24.5312 18.8345 24.5312C23.0745 24.5312 26.5108 21.9348 26.5108 18.7227Z" fill="#E86124"/>
<path d="M13.4258 18.7227V16.3122H14.1167C15.1771 14.5565 17.3612 13.2705 19.9686 12.9777C19.5921 12.9359 19.2134 12.9149 18.8345 12.915C15.7316 12.915 13.0585 14.308 11.8485 16.3122H11.1575V18.7227C11.1575 21.9311 14.5945 24.5312 18.8345 24.5312C19.2135 24.5314 19.5921 24.5103 19.9686 24.4678C16.2662 24.0534 13.4258 21.6399 13.4258 18.7227Z" fill="#DC4A26"/>
<path d="M18.8345 22.1208C23.0744 22.1208 26.5115 19.5203 26.5115 16.3124C26.5115 13.1044 23.0744 10.5039 18.8345 10.5039C14.5946 10.5039 11.1575 13.1044 11.1575 16.3124C11.1575 19.5203 14.5946 22.1208 18.8345 22.1208Z" fill="#F0E92D"/>
<path d="M18.8345 20.5157C21.9028 20.5157 24.39 18.6338 24.39 16.3125C24.39 13.9912 21.9028 12.1094 18.8345 12.1094C15.7663 12.1094 13.279 13.9912 13.279 16.3125C13.279 18.6338 15.7663 20.5157 18.8345 20.5157Z" fill="#EF8521"/>
<path d="M14.9088 17.0408C14.9088 14.6996 16.6786 12.7271 19.0884 12.1136C19.0043 12.1136 18.9195 12.1084 18.8347 12.1084C15.7657 12.1084 13.2785 13.9902 13.2785 16.3115C13.2785 17.8055 14.3108 19.1136 15.8593 19.8621C15.2457 19.0492 14.9122 18.0593 14.9088 17.0408Z" fill="#E86124"/>
<path d="M25.7002 15.2332V12.822H25.0093C23.7985 10.8177 21.1262 9.4248 18.0232 9.4248C14.9203 9.4248 12.248 10.8177 11.0372 12.822H10.3462V15.2332C10.3462 18.4409 13.7832 21.0417 18.0232 21.0417C22.2632 21.0417 25.7002 18.4409 25.7002 15.2332Z" fill="#E86124"/>
<path d="M12.6152 15.2332V12.822H13.3061C14.3658 11.067 16.5507 9.78096 19.1573 9.48822C18.7808 9.44608 18.4022 9.42491 18.0232 9.4248C14.9203 9.4248 12.248 10.8177 11.0372 12.822H10.3462V15.2332C10.3462 18.4409 13.7832 21.0417 18.0232 21.0417C18.4022 21.0416 18.7808 21.0204 19.1573 20.9783C15.4556 20.5639 12.6152 18.1496 12.6152 15.2332Z" fill="#DC4A26"/>
<path d="M18.0232 18.6306C22.2631 18.6306 25.7002 16.03 25.7002 12.8221C25.7002 9.6142 22.2631 7.01367 18.0232 7.01367C13.7833 7.01367 10.3462 9.6142 10.3462 12.8221C10.3462 16.03 13.7833 18.6306 18.0232 18.6306Z" fill="#F0E92D"/>
<path d="M18.0232 17.0254C21.0915 17.0254 23.5787 15.1436 23.5787 12.8223C23.5787 10.501 21.0915 8.61914 18.0232 8.61914C14.955 8.61914 12.4677 10.501 12.4677 12.8223C12.4677 15.1436 14.955 17.0254 18.0232 17.0254Z" fill="#EF8521"/>
<path d="M14.0981 13.5516C14.0981 11.2103 15.8678 9.23781 18.2776 8.6243C18.1928 8.6243 18.1088 8.61914 18.0232 8.61914C14.9549 8.61914 12.4677 10.501 12.4677 12.8223C12.4677 14.3162 13.5001 15.6244 15.0486 16.3728C14.4344 15.5602 14.1009 14.5701 14.0981 13.5516Z" fill="#E86124"/>
<path d="M26.5108 11.7098V9.29854H25.8199C24.6098 7.2943 21.9367 5.90137 18.8345 5.90137C15.7323 5.90137 13.0585 7.2943 11.8485 9.29854H11.1575V11.7098C11.1575 14.9175 14.5945 17.5175 18.8345 17.5175C23.0745 17.5175 26.5108 14.9175 26.5108 11.7098Z" fill="#E86124"/>
<path d="M13.4258 11.7098V9.29854H14.1167C15.1771 7.54281 17.3612 6.25679 19.9686 5.96478C19.5921 5.9223 19.2135 5.90113 18.8345 5.90137C15.7316 5.90137 13.0585 7.29431 11.8485 9.29854H11.1575V11.7098C11.1575 14.9175 14.5945 17.5175 18.8345 17.5175C19.2134 17.5176 19.5921 17.4967 19.9686 17.4548C16.2662 17.0397 13.4258 14.6255 13.4258 11.7098Z" fill="#DC4A26"/>
<path d="M18.8345 15.1071C23.0744 15.1071 26.5115 12.5066 26.5115 9.29868C26.5115 6.09077 23.0744 3.49023 18.8345 3.49023C14.5946 3.49023 11.1575 6.09077 11.1575 9.29868C11.1575 12.5066 14.5946 15.1071 18.8345 15.1071Z" fill="#F0E92D"/>
<path d="M18.8345 13.502C21.9028 13.502 24.39 11.6202 24.39 9.29884C24.39 6.97751 21.9028 5.0957 18.8345 5.0957C15.7663 5.0957 13.279 6.97751 13.279 9.29884C13.279 11.6202 15.7663 13.502 18.8345 13.502Z" fill="#EF8521"/>
<path d="M14.9088 10.0274C14.9088 7.6869 16.6786 5.71364 19.0884 5.10013C19.0043 5.10013 18.9195 5.0957 18.8347 5.0957C15.7657 5.0957 13.2785 6.97753 13.2785 9.29884C13.2785 10.7928 14.3108 12.1009 15.8593 12.8494C15.2456 12.0363 14.912 11.0461 14.9088 10.0274Z" fill="#E86124"/>
<path d="M25.7002 8.21958V5.8083H25.0093C23.7985 3.80407 21.1262 2.41113 18.0232 2.41113C14.9203 2.41113 12.248 3.80407 11.0372 5.8083H10.3462V8.21958C10.3462 11.4272 13.7832 14.0273 18.0232 14.0273C22.2632 14.0273 25.7002 11.4272 25.7002 8.21958Z" fill="#E86124"/>
<path d="M12.6152 8.21958V5.8083H13.3061C14.3658 4.05257 16.5507 2.76656 19.1573 2.47381C18.7808 2.43193 18.4021 2.411 18.0232 2.41113C14.9203 2.41113 12.248 3.80407 11.0372 5.8083H10.3462V8.21958C10.3462 11.4272 13.7832 14.0273 18.0232 14.0273C18.4022 14.0275 18.7808 14.0064 19.1573 13.9639C15.4556 13.5495 12.6152 11.1352 12.6152 8.21958Z" fill="#DC4A26"/>
<path d="M18.0232 11.6169C22.2631 11.6169 25.7002 9.01636 25.7002 5.80844C25.7002 2.60053 22.2631 0 18.0232 0C13.7833 0 10.3462 2.60053 10.3462 5.80844C10.3462 9.01636 13.7833 11.6169 18.0232 11.6169Z" fill="#F0E92D"/>
<path d="M18.0232 10.0117C21.0915 10.0117 23.5787 8.12994 23.5787 5.80861C23.5787 3.48728 21.0915 1.60547 18.0232 1.60547C14.955 1.60547 12.4677 3.48728 12.4677 5.80861C12.4677 8.12994 14.955 10.0117 18.0232 10.0117Z" fill="#EF8521"/>
<path d="M14.0981 6.53691C14.0981 4.19569 15.8678 2.22317 18.2776 1.60965C18.1928 1.60965 18.1088 1.60449 18.0232 1.60449C14.9549 1.60449 12.4677 3.48632 12.4677 5.80763C12.4677 7.30159 13.5001 8.60973 15.0486 9.35818C14.4347 8.54547 14.1011 7.55544 14.0981 6.53691Z" fill="#E86124"/>
<path d="M39.7439 19.8358V17.4245H39.053C37.8422 15.4203 35.1699 14.0273 32.0669 14.0273C28.964 14.0273 26.2909 15.4203 25.0808 17.4245H24.3899V19.8358C24.3899 23.0435 27.8269 25.6442 32.0669 25.6442C36.3069 25.6442 39.7439 23.0412 39.7439 19.8358Z" fill="#E86124"/>
<path d="M26.6581 19.8358V17.4245H27.3491C28.4094 15.6695 30.5936 14.3828 33.201 14.0908C32.8245 14.0483 32.4458 14.0271 32.0669 14.0273C28.964 14.0273 26.2909 15.4203 25.0808 17.4245H24.3899V19.8358C24.3899 23.0435 27.8269 25.6442 32.0669 25.6442C32.4458 25.6441 32.8244 25.6229 33.201 25.5808C29.4993 25.1657 26.6581 22.7522 26.6581 19.8358Z" fill="#DC4A26"/>
<path d="M32.0669 23.2331C36.3068 23.2331 39.7439 20.6326 39.7439 17.4247C39.7439 14.2167 36.3068 11.6162 32.0669 11.6162C27.827 11.6162 24.3899 14.2167 24.3899 17.4247C24.3899 20.6326 27.827 23.2331 32.0669 23.2331Z" fill="#F0E92D"/>
<path d="M32.0672 21.628C35.1354 21.628 37.6227 19.7462 37.6227 17.4248C37.6227 15.1035 35.1354 13.2217 32.0672 13.2217C28.999 13.2217 26.5117 15.1035 26.5117 17.4248C26.5117 19.7462 28.999 21.628 32.0672 21.628Z" fill="#EF8521"/>
<path d="M28.1412 18.1534C28.1412 15.8129 29.911 13.8396 32.3208 13.2261C32.2367 13.2261 32.1519 13.2217 32.0671 13.2217C28.9988 13.2217 26.5108 15.1035 26.5108 17.4248C26.5108 18.9188 27.5432 20.2269 29.0917 20.9754C28.4778 20.1623 28.1443 19.1721 28.1412 18.1534Z" fill="#E86124"/>
<path d="M38.5723 15.8202V13.4089H37.8814C36.6713 11.4047 33.9983 10.0117 30.8953 10.0117C27.7924 10.0117 25.1201 11.4047 23.91 13.4089H23.2191V15.8202C23.2191 19.0278 26.656 21.6279 30.8953 21.6279C35.1346 21.6279 38.5723 19.0278 38.5723 15.8202Z" fill="#E86124"/>
<path d="M25.4873 15.8202V13.4089H26.176C27.2364 11.6532 29.4205 10.3671 32.028 10.0744C31.6519 10.0326 31.2737 10.0117 30.8953 10.0117C27.7931 10.0117 25.1201 11.4047 23.91 13.4089H23.2191V15.8202C23.2191 19.0278 26.656 21.6279 30.8953 21.6279C31.2745 21.628 31.6533 21.6071 32.0302 21.5652C28.3277 21.15 25.4873 18.7358 25.4873 15.8202Z" fill="#DC4A26"/>
<path d="M30.8952 19.2175C35.1351 19.2175 38.5722 16.6169 38.5722 13.409C38.5722 10.2011 35.1351 7.60059 30.8952 7.60059C26.6554 7.60059 23.2182 10.2011 23.2182 13.409C23.2182 16.6169 26.6554 19.2175 30.8952 19.2175Z" fill="#F0E92D"/>
<path d="M30.8953 17.6123C33.9635 17.6123 36.4508 15.7305 36.4508 13.4092C36.4508 11.0879 33.9635 9.20605 30.8953 9.20605C27.827 9.20605 25.3397 11.0879 25.3397 13.4092C25.3397 15.7305 27.827 17.6123 30.8953 17.6123Z" fill="#EF8521"/>
<path d="M26.9701 14.1377C26.9701 11.7973 28.7399 9.82399 31.1497 9.21048C31.0656 9.20753 30.9808 9.20605 30.8953 9.20605C27.827 9.20605 25.3397 11.0879 25.3397 13.4092C25.3397 14.9032 26.3721 16.2113 27.9206 16.9597C27.3068 16.1467 26.9733 15.1565 26.9701 14.1377Z" fill="#E86124"/>
<path d="M16.3629 15.2901L14.5658 13.6826L14.105 14.1988C11.8043 13.7645 8.98451 14.8285 6.91613 17.141C4.84774 19.4535 4.10371 22.3772 4.7917 24.6123L4.33083 25.1284L6.12785 26.7359C8.51922 28.8744 12.7489 28.0463 15.5753 24.8858C18.4018 21.7254 18.7542 17.4286 16.3629 15.2901Z" fill="#E86124"/>
<path d="M7.63944 25.0438L5.84241 23.4363L6.30328 22.9201C5.70157 20.9594 6.1971 18.4759 7.71908 16.3359C7.43641 16.5892 7.16831 16.8583 6.91605 17.1419C4.85135 19.4551 4.10364 22.3774 4.79089 24.6139L4.33002 25.1301L6.12704 26.7376C8.51841 28.876 12.7481 28.0479 15.5745 24.8875C15.8272 24.6061 16.0638 24.3107 16.2832 24.0026C13.5061 26.4795 9.81327 26.9883 7.63944 25.0438Z" fill="#DC4A26"/>
<path d="M13.7767 23.2783C16.6033 20.118 16.9564 15.8225 14.5653 13.6839C12.1743 11.5453 7.94454 12.3735 5.11797 15.5337C2.29139 18.694 1.93833 22.9895 4.32938 25.1281C6.72043 27.2667 10.9502 26.4385 13.7767 23.2783Z" fill="#F0E92D"/>
<path d="M12.5803 22.2074C14.6258 19.9205 14.8813 16.812 13.1511 15.2645C11.4209 13.717 8.36008 14.3163 6.3146 16.6033C4.26913 18.8902 4.01357 21.9987 5.7438 23.5462C7.47402 25.0938 10.5348 24.4944 12.5803 22.2074Z" fill="#EF8521"/>
<path d="M7.37238 22.8198C5.62771 21.2594 5.33497 18.6269 6.48751 16.4199C6.42901 16.4804 6.3715 16.5423 6.31496 16.6057C4.26943 18.8917 4.01356 22.0012 5.74422 23.549C6.85768 24.5453 8.52272 24.6507 10.1133 23.9915C9.09676 23.9084 8.1348 23.4972 7.37238 22.8198Z" fill="#E86124"/>
</g>
<defs>
<filter id="filter0_d_106_4234" x="2.74368" y="0" width="37.0002" height="29.9248" filterUnits="userSpaceOnUse" color-interpolation-filters="sRGB">
<feFlood flood-opacity="0" result="BackgroundImageFix"/>
<feColorMatrix in="SourceAlpha" type="matrix" values="0 0 0 0 0 0 0 0 0 0 0 0 0 0 0 0 0 0 127 0" result="hardAlpha"/>
<feOffset dy="2"/>
<feComposite in2="hardAlpha" operator="out"/>
<feColorMatrix type="matrix" values="0 0 0 0 0 0 0 0 0 0 0 0 0 0 0 0 0 0 0.15 0"/>
<feBlend mode="normal" in2="BackgroundImageFix" result="effect1_dropShadow_106_4234"/>
<feBlend mode="normal" in="SourceGraphic" in2="effect1_dropShadow_106_4234" result="shape"/>
</filter>
</defs>
</svg>
